<svg width="117" height="14" viewBox="0 0 117 14" fill="none" xmlns="http://www.w3.org/2000/svg">
<path d="M5.026 11.168C4.48467 11.168 4.02733 11.042 3.654 10.79C3.28067 10.538 2.996 10.2113 2.8 9.81L2.744 11H0.924V1.06H2.828V4.56C3.01467 4.196 3.29467 3.902 3.668 3.678C4.05067 3.44467 4.50333 3.328 5.026 3.328C5.62333 3.328 6.146 3.482 6.594 3.79C7.042 4.098 7.38733 4.546 7.63 5.134C7.882 5.71267 8.008 6.41733 8.008 7.248C8.008 8.07867 7.882 8.788 7.63 9.376C7.38733 9.95467 7.042 10.398 6.594 10.706C6.146 11.014 5.62333 11.168 5.026 11.168ZM4.48 9.488C4.99333 9.488 5.38067 9.29667 5.642 8.914C5.90333 8.522 6.034 7.96667 6.034 7.248C6.034 6.52 5.90333 5.96467 5.642 5.582C5.38067 5.19933 4.99333 5.008 4.48 5.008C4.15333 5.008 3.864 5.092 3.612 5.26C3.36 5.428 3.164 5.68 3.024 6.016C2.89333 6.352 2.828 6.76267 2.828 7.248C2.828 7.724 2.89333 8.13 3.024 8.466C3.164 8.802 3.35533 9.05867 3.598 9.236C3.85 9.404 4.144 9.488 4.48 9.488ZM13.6165 11C12.7765 11 12.1559 10.8087 11.7545 10.426C11.3625 10.0433 11.1665 9.45067 11.1665 8.648V1.732H13.0705V8.466C13.0705 8.81133 13.1499 9.068 13.3085 9.236C13.4765 9.404 13.7332 9.488 14.0785 9.488H15.8425V11H13.6165ZM9.01053 5.008V3.496H15.8425V5.008H9.01053ZM18.3571 11L16.9851 3.496H18.8751L19.5611 8.396L20.3451 4.588H21.6331L22.4171 8.396L23.1031 3.496H24.9931L23.6211 11H21.7871L20.9891 7.304L20.1911 11H18.3571ZM26.1916 11V3.496H27.9276L27.9836 5.54L27.7876 5.456C27.8809 4.97067 28.0396 4.56933 28.2636 4.252C28.4969 3.93467 28.7816 3.70133 29.1176 3.552C29.4536 3.40267 29.8269 3.328 30.2376 3.328C30.7789 3.328 31.2176 3.44933 31.5536 3.692C31.8989 3.93467 32.1556 4.266 32.3236 4.686C32.4916 5.106 32.5756 5.59133 32.5756 6.142V11H30.6716V6.576C30.6716 6.00667 30.5736 5.59133 30.3776 5.33C30.1909 5.06867 29.9063 4.938 29.5236 4.938C29.2623 4.938 29.0243 5.00333 28.8096 5.134C28.5949 5.26467 28.4223 5.456 28.2916 5.708C28.1609 5.96 28.0956 6.27733 28.0956 6.66V11H26.1916ZM36.8821 12.54V0.499999H38.6741V12.54H36.8821ZM70.4603 12.54V0.499999H72.2523V12.54H70.4603ZM79.8208 11.168C79.1021 11.168 78.5001 11.056 78.0148 10.832C77.5294 10.5987 77.1561 10.2953 76.8948 9.922C76.6428 9.53933 76.4934 9.11467 76.4468 8.648L78.3228 8.564C78.4068 8.872 78.5654 9.11933 78.7988 9.306C79.0321 9.48333 79.3774 9.572 79.8348 9.572C80.2734 9.572 80.5954 9.52067 80.8008 9.418C81.0061 9.31533 81.1088 9.16133 81.1088 8.956C81.1088 8.80667 81.0714 8.69 80.9968 8.606C80.9221 8.51267 80.7821 8.42867 80.5768 8.354C80.3714 8.27 80.0634 8.19067 79.6528 8.116C78.8968 7.95733 78.2948 7.78 77.8468 7.584C77.4081 7.37867 77.0908 7.12667 76.8948 6.828C76.7081 6.52 76.6148 6.13733 76.6148 5.68C76.6148 5.25067 76.7268 4.85867 76.9508 4.504C77.1748 4.14933 77.5154 3.86467 77.9728 3.65C78.4301 3.43533 79.0041 3.328 79.6948 3.328C80.4414 3.328 81.0434 3.44933 81.5008 3.692C81.9674 3.93467 82.3174 4.24733 82.5508 4.63C82.7841 5.01267 82.9334 5.41867 82.9988 5.848L81.1088 5.932C81.0714 5.72667 80.9921 5.54933 80.8708 5.4C80.7494 5.25067 80.5908 5.134 80.3948 5.05C80.1988 4.966 79.9654 4.924 79.6948 4.924C79.2934 4.924 79.0041 5.00333 78.8268 5.162C78.6494 5.31133 78.5608 5.484 78.5608 5.68C78.5608 5.85733 78.6074 6.002 78.7008 6.114C78.7941 6.226 78.9621 6.324 79.2048 6.408C79.4568 6.492 79.8068 6.58067 80.2548 6.674C80.9828 6.814 81.5474 6.982 81.9488 7.178C82.3501 7.36467 82.6348 7.598 82.8028 7.878C82.9708 8.14867 83.0548 8.494 83.0548 8.914C83.0548 9.38067 82.9241 9.782 82.6628 10.118C82.4108 10.454 82.0421 10.7153 81.5568 10.902C81.0808 11.0793 80.5021 11.168 79.8208 11.168ZM84.7293 13.1V3.496H86.5633L86.6193 5.232L86.4373 5.148C86.6333 4.56 86.932 4.112 87.3333 3.804C87.7346 3.48667 88.2386 3.328 88.8453 3.328C89.508 3.328 90.0586 3.50067 90.4973 3.846C90.936 4.19133 91.2626 4.66267 91.4773 5.26C91.7013 5.848 91.8133 6.51067 91.8133 7.248C91.8133 7.976 91.7013 8.63867 91.4773 9.236C91.2626 9.83333 90.936 10.3047 90.4973 10.65C90.0586 10.9953 89.508 11.168 88.8453 11.168C88.444 11.168 88.0846 11.1073 87.7673 10.986C87.45 10.8647 87.1793 10.6827 86.9553 10.44C86.7406 10.188 86.5633 9.88 86.4233 9.516L86.6333 9.334V13.1H84.7293ZM88.2573 9.488C88.7613 9.488 89.1486 9.306 89.4193 8.942C89.6993 8.578 89.8393 8.01333 89.8393 7.248C89.8393 6.48267 89.6993 5.918 89.4193 5.554C89.1486 5.19 88.7613 5.008 88.2573 5.008C87.94 5.008 87.6553 5.08733 87.4033 5.246C87.1606 5.40467 86.9693 5.652 86.8293 5.988C86.6986 6.31467 86.6333 6.73467 86.6333 7.248C86.6333 7.76133 86.6986 8.186 86.8293 8.522C86.9693 8.84867 87.1606 9.09133 87.4033 9.25C87.6553 9.40867 87.94 9.488 88.2573 9.488ZM95.4758 11.168C95.0185 11.168 94.5985 11.084 94.2158 10.916C93.8332 10.748 93.5298 10.5053 93.3058 10.188C93.0912 9.87067 92.9838 9.49267 92.9838 9.054C92.9838 8.41933 93.1845 7.92467 93.5858 7.57C93.9965 7.21533 94.5565 6.96333 95.2658 6.814L97.5198 6.324C97.5198 5.848 97.4218 5.484 97.2258 5.232C97.0392 4.98 96.7312 4.854 96.3018 4.854C95.9285 4.854 95.6392 4.94733 95.4338 5.134C95.2285 5.32067 95.0932 5.568 95.0278 5.876L93.0678 5.764C93.2078 5.02667 93.5578 4.43867 94.1178 4C94.6872 3.552 95.4058 3.328 96.2738 3.328C97.3565 3.328 98.1498 3.60333 98.6538 4.154C99.1672 4.69533 99.4238 5.456 99.4238 6.436V9.082C99.4238 9.26867 99.4565 9.39933 99.5218 9.474C99.5872 9.53933 99.6852 9.572 99.8158 9.572H100.124V11C100.068 11.0093 99.9745 11.0187 99.8438 11.028C99.7132 11.0467 99.5778 11.056 99.4378 11.056C99.0645 11.056 98.7472 10.9907 98.4858 10.86C98.2245 10.7293 98.0238 10.538 97.8838 10.286C97.7532 10.034 97.6785 9.73067 97.6598 9.376H97.8698C97.8232 9.712 97.6972 10.02 97.4918 10.3C97.2865 10.5707 97.0112 10.7853 96.6658 10.944C96.3205 11.0933 95.9238 11.168 95.4758 11.168ZM95.8678 9.74C96.2225 9.74 96.5212 9.67933 96.7638 9.558C97.0065 9.42733 97.1932 9.24067 97.3238 8.998C97.4545 8.746 97.5198 8.452 97.5198 8.116V7.668L95.8538 8.032C95.5178 8.10667 95.2798 8.214 95.1398 8.354C94.9998 8.494 94.9298 8.69467 94.9298 8.956C94.9298 9.19867 95.0092 9.39 95.1678 9.53C95.3265 9.67 95.5598 9.74 95.8678 9.74ZM105.06 11.168C104.351 11.168 103.721 11.0047 103.17 10.678C102.629 10.3513 102.204 9.894 101.896 9.306C101.598 8.70867 101.448 8.02267 101.448 7.248C101.448 6.47333 101.598 5.792 101.896 5.204C102.204 4.616 102.629 4.15867 103.17 3.832C103.721 3.496 104.351 3.328 105.06 3.328C105.648 3.328 106.185 3.44467 106.67 3.678C107.156 3.91133 107.552 4.24267 107.86 4.672C108.178 5.10133 108.378 5.61467 108.462 6.212L106.572 6.31C106.479 5.89 106.302 5.568 106.04 5.344C105.779 5.12 105.457 5.008 105.074 5.008C104.561 5.008 104.155 5.20867 103.856 5.61C103.567 6.002 103.422 6.548 103.422 7.248C103.422 7.948 103.567 8.49867 103.856 8.9C104.155 9.292 104.561 9.488 105.074 9.488C105.466 9.488 105.793 9.37133 106.054 9.138C106.325 8.90467 106.502 8.564 106.586 8.116L108.476 8.214C108.402 8.802 108.206 9.32 107.888 9.768C107.571 10.2067 107.17 10.552 106.684 10.804C106.199 11.0467 105.658 11.168 105.06 11.168ZM113.385 11.168C112.685 11.168 112.064 11.0093 111.523 10.692C110.991 10.3653 110.571 9.908 110.263 9.32C109.964 8.732 109.815 8.04133 109.815 7.248C109.815 6.47333 109.964 5.792 110.263 5.204C110.562 4.616 110.977 4.15867 111.509 3.832C112.041 3.496 112.657 3.328 113.357 3.328C114.048 3.328 114.654 3.49133 115.177 3.818C115.709 4.14467 116.124 4.60667 116.423 5.204C116.722 5.792 116.871 6.48733 116.871 7.29V7.766H111.775C111.822 8.326 111.99 8.75533 112.279 9.054C112.578 9.34333 112.96 9.488 113.427 9.488C113.772 9.488 114.066 9.40867 114.309 9.25C114.552 9.082 114.72 8.858 114.813 8.578L116.717 8.704C116.465 9.488 116.054 10.0947 115.485 10.524C114.925 10.9533 114.225 11.168 113.385 11.168ZM111.803 6.464H114.841C114.794 5.97867 114.636 5.61467 114.365 5.372C114.094 5.12933 113.754 5.008 113.343 5.008C112.914 5.008 112.564 5.134 112.293 5.386C112.032 5.62867 111.868 5.988 111.803 6.464Z" fill="black"/>
</svg>
